<mxfile host="app.diagrams.net" modified="2021-03-01T13:50:04.542Z" agent="5.0 (Windows NT 10.0; Win64; x64) AppleWebKit/537.36 (KHTML, like Gecko) Chrome/87.0.4280.66 Safari/537.36" etag="fEeMN61ojL03AoJAFEbW" version="14.4.3" type="github">
  <diagram name="Page-1" id="74e2e168-ea6b-b213-b513-2b3c1d86103e">
    <mxGraphModel dx="946" dy="540" grid="1" gridSize="10" guides="1" tooltips="1" connect="1" arrows="1" fold="1" page="1" pageScale="1" pageWidth="1100" pageHeight="850" background="#ffffff" math="0" shadow="0">
      <root>
        <mxCell id="0" />
        <mxCell id="1" parent="0" />
        <mxCell id="77e6c97f196da883-1" value="On demand material status und master data transfer to web shop" style="swimlane;html=1;childLayout=stackLayout;startSize=20;rounded=0;shadow=0;labelBackgroundColor=none;strokeWidth=1;fontFamily=Verdana;fontSize=8;align=center;" parent="1" vertex="1">
          <mxGeometry x="70" y="80" width="860" height="590" as="geometry" />
        </mxCell>
        <mxCell id="77e6c97f196da883-2" value="Customer" style="swimlane;html=1;startSize=20;" parent="77e6c97f196da883-1" vertex="1">
          <mxGeometry y="20" width="220" height="570" as="geometry" />
        </mxCell>
        <mxCell id="77e6c97f196da883-8" value="Customer requests quotation for NOK Material" style="rounded=1;whiteSpace=wrap;html=1;shadow=0;labelBackgroundColor=none;strokeWidth=1;fontFamily=Verdana;fontSize=8;align=center;fillColor=#dae8fc;strokeColor=#6c8ebf;" parent="77e6c97f196da883-2" vertex="1">
          <mxGeometry x="65" y="60" width="100" height="60" as="geometry" />
        </mxCell>
        <mxCell id="eOD7ezb7lZvlz8eYBK3R-17" value="&lt;span&gt;As the CCC member anyhow needs to interact with the material he can manually trigger the process. There is no use case where a material gets &quot;webshop relevant&quot; by itself, so there is no additional value in subscribing to the system events which would cause extra effort. For the case that the material status changes and no manual trigger occurs, the delay to have the items in the shop is reduced by the sales org specific schedule.&lt;/span&gt;" style="rounded=0;whiteSpace=wrap;html=1;labelBackgroundColor=none;fillColor=#e1d5e7;strokeColor=#9673a6;" vertex="1" parent="77e6c97f196da883-2">
          <mxGeometry x="20" y="220" width="190" height="215" as="geometry" />
        </mxCell>
        <mxCell id="77e6c97f196da883-26" style="edgeStyle=orthogonalEdgeStyle;rounded=1;html=1;labelBackgroundColor=none;startArrow=none;startFill=0;startSize=5;endArrow=classicThin;endFill=1;endSize=5;jettySize=auto;orthogonalLoop=1;strokeWidth=1;fontFamily=Verdana;fontSize=8" parent="77e6c97f196da883-1" source="77e6c97f196da883-8" target="eOD7ezb7lZvlz8eYBK3R-1" edge="1">
          <mxGeometry relative="1" as="geometry">
            <mxPoint x="190" y="115" as="targetPoint" />
          </mxGeometry>
        </mxCell>
        <mxCell id="107ba76e4e335f99-1" style="edgeStyle=orthogonalEdgeStyle;rounded=1;html=1;labelBackgroundColor=none;startArrow=none;startFill=0;startSize=5;endArrow=classicThin;endFill=1;endSize=5;jettySize=auto;orthogonalLoop=1;strokeWidth=1;fontFamily=Verdana;fontSize=8" parent="77e6c97f196da883-1" source="77e6c97f196da883-17" target="77e6c97f196da883-18" edge="1">
          <mxGeometry relative="1" as="geometry" />
        </mxCell>
        <mxCell id="77e6c97f196da883-3" value="CCC" style="swimlane;html=1;startSize=20;" parent="77e6c97f196da883-1" vertex="1">
          <mxGeometry x="220" y="20" width="160" height="570" as="geometry" />
        </mxCell>
        <mxCell id="eOD7ezb7lZvlz8eYBK3R-1" value="CCC member creates or maintians material data to saleable" style="rounded=1;whiteSpace=wrap;html=1;shadow=0;labelBackgroundColor=none;strokeWidth=1;fontFamily=Verdana;fontSize=8;align=center;fillColor=#dae8fc;strokeColor=#6c8ebf;" vertex="1" parent="77e6c97f196da883-3">
          <mxGeometry x="30" y="60" width="100" height="60" as="geometry" />
        </mxCell>
        <mxCell id="eOD7ezb7lZvlz8eYBK3R-4" value="CCC Member starts transaction to push Material to shop" style="rounded=1;whiteSpace=wrap;html=1;shadow=0;labelBackgroundColor=none;strokeWidth=1;fontFamily=Verdana;fontSize=8;align=center;fillColor=#d5e8d4;strokeColor=#82b366;" vertex="1" parent="77e6c97f196da883-3">
          <mxGeometry x="30" y="170" width="100" height="60" as="geometry" />
        </mxCell>
        <mxCell id="77e6c97f196da883-4" value="SAP" style="swimlane;html=1;startSize=20;" parent="77e6c97f196da883-1" vertex="1">
          <mxGeometry x="380" y="20" width="160" height="570" as="geometry" />
        </mxCell>
        <mxCell id="eOD7ezb7lZvlz8eYBK3R-2" value="MatStatus Simulation returns OK of Material" style="rounded=1;whiteSpace=wrap;html=1;shadow=0;labelBackgroundColor=none;strokeWidth=1;fontFamily=Verdana;fontSize=8;align=center;fillColor=#dae8fc;strokeColor=#6c8ebf;" vertex="1" parent="77e6c97f196da883-4">
          <mxGeometry x="30" y="60" width="100" height="60" as="geometry" />
        </mxCell>
        <mxCell id="eOD7ezb7lZvlz8eYBK3R-6" value="Minimum reqired master data and status&amp;nbsp;&lt;br&gt;is transferred to shop" style="rounded=1;whiteSpace=wrap;html=1;shadow=0;labelBackgroundColor=none;strokeWidth=1;fontFamily=Verdana;fontSize=8;align=center;fillColor=#d5e8d4;strokeColor=#82b366;" vertex="1" parent="77e6c97f196da883-4">
          <mxGeometry x="30" y="170" width="100" height="60" as="geometry" />
        </mxCell>
        <mxCell id="77e6c97f196da883-17" value="Regular export of material master data" style="rounded=1;whiteSpace=wrap;html=1;shadow=0;labelBackgroundColor=none;strokeWidth=1;fontFamily=Verdana;fontSize=8;align=center;fillColor=#dae8fc;strokeColor=#6c8ebf;" parent="77e6c97f196da883-4" vertex="1">
          <mxGeometry x="30" y="340" width="100" height="60" as="geometry" />
        </mxCell>
        <mxCell id="eOD7ezb7lZvlz8eYBK3R-11" value="Regular export of material status (separate schedule per sales org)" style="rounded=1;whiteSpace=wrap;html=1;shadow=0;labelBackgroundColor=none;strokeWidth=1;fontFamily=Verdana;fontSize=8;align=center;fillColor=#d5e8d4;strokeColor=#82b366;" vertex="1" parent="77e6c97f196da883-4">
          <mxGeometry x="30" y="490" width="100" height="60" as="geometry" />
        </mxCell>
        <mxCell id="77e6c97f196da883-5" value="Shop" style="swimlane;html=1;startSize=20;" parent="77e6c97f196da883-1" vertex="1">
          <mxGeometry x="540" y="20" width="160" height="570" as="geometry" />
        </mxCell>
        <mxCell id="eOD7ezb7lZvlz8eYBK3R-10" style="edgeStyle=orthogonalEdgeStyle;rounded=0;orthogonalLoop=1;jettySize=auto;html=1;" edge="1" parent="77e6c97f196da883-5" source="77e6c97f196da883-15" target="eOD7ezb7lZvlz8eYBK3R-9">
          <mxGeometry relative="1" as="geometry" />
        </mxCell>
        <mxCell id="77e6c97f196da883-15" value="Shop updates material master record and status information" style="rounded=1;whiteSpace=wrap;html=1;shadow=0;labelBackgroundColor=none;strokeWidth=1;fontFamily=Verdana;fontSize=8;align=center;fillColor=#d5e8d4;strokeColor=#82b366;" parent="77e6c97f196da883-5" vertex="1">
          <mxGeometry x="30" y="170" width="100" height="60" as="geometry" />
        </mxCell>
        <mxCell id="eOD7ezb7lZvlz8eYBK3R-9" value="Material Purchaseable" style="rounded=1;whiteSpace=wrap;html=1;shadow=0;labelBackgroundColor=none;strokeWidth=1;fontFamily=Verdana;fontSize=8;align=center;fillColor=#d5e8d4;strokeColor=#82b366;" vertex="1" parent="77e6c97f196da883-5">
          <mxGeometry x="30" y="260" width="100" height="60" as="geometry" />
        </mxCell>
        <mxCell id="77e6c97f196da883-21" value="Material complete" style="rounded=1;whiteSpace=wrap;html=1;shadow=0;labelBackgroundColor=none;strokeWidth=1;fontFamily=Verdana;fontSize=8;align=center;fillColor=#dae8fc;strokeColor=#6c8ebf;" parent="77e6c97f196da883-5" vertex="1">
          <mxGeometry x="30" y="420" width="100" height="60" as="geometry" />
        </mxCell>
        <mxCell id="77e6c97f196da883-6" value="PIM" style="swimlane;html=1;startSize=20;" parent="77e6c97f196da883-1" vertex="1">
          <mxGeometry x="700" y="20" width="160" height="570" as="geometry" />
        </mxCell>
        <mxCell id="77e6c97f196da883-18" value="Enrichtment of master data" style="rounded=1;whiteSpace=wrap;html=1;shadow=0;labelBackgroundColor=none;strokeWidth=1;fontFamily=Verdana;fontSize=8;align=center;fillColor=#dae8fc;strokeColor=#6c8ebf;" parent="77e6c97f196da883-6" vertex="1">
          <mxGeometry x="30" y="340" width="100" height="60" as="geometry" />
        </mxCell>
        <mxCell id="eOD7ezb7lZvlz8eYBK3R-3" style="edgeStyle=orthogonalEdgeStyle;rounded=0;orthogonalLoop=1;jettySize=auto;html=1;entryX=0;entryY=0.5;entryDx=0;entryDy=0;" edge="1" parent="77e6c97f196da883-1" source="eOD7ezb7lZvlz8eYBK3R-1" target="eOD7ezb7lZvlz8eYBK3R-2">
          <mxGeometry relative="1" as="geometry" />
        </mxCell>
        <mxCell id="eOD7ezb7lZvlz8eYBK3R-5" style="edgeStyle=orthogonalEdgeStyle;rounded=0;orthogonalLoop=1;jettySize=auto;html=1;" edge="1" parent="77e6c97f196da883-1" source="eOD7ezb7lZvlz8eYBK3R-2" target="eOD7ezb7lZvlz8eYBK3R-4">
          <mxGeometry relative="1" as="geometry">
            <Array as="points">
              <mxPoint x="400" y="170" />
              <mxPoint x="240" y="170" />
            </Array>
          </mxGeometry>
        </mxCell>
        <mxCell id="eOD7ezb7lZvlz8eYBK3R-7" style="edgeStyle=orthogonalEdgeStyle;rounded=0;orthogonalLoop=1;jettySize=auto;html=1;" edge="1" parent="77e6c97f196da883-1" source="eOD7ezb7lZvlz8eYBK3R-4" target="eOD7ezb7lZvlz8eYBK3R-6">
          <mxGeometry relative="1" as="geometry" />
        </mxCell>
        <mxCell id="eOD7ezb7lZvlz8eYBK3R-8" style="edgeStyle=orthogonalEdgeStyle;rounded=0;orthogonalLoop=1;jettySize=auto;html=1;" edge="1" parent="77e6c97f196da883-1" source="eOD7ezb7lZvlz8eYBK3R-6" target="77e6c97f196da883-15">
          <mxGeometry relative="1" as="geometry" />
        </mxCell>
        <mxCell id="eOD7ezb7lZvlz8eYBK3R-12" style="edgeStyle=orthogonalEdgeStyle;rounded=0;orthogonalLoop=1;jettySize=auto;html=1;" edge="1" parent="77e6c97f196da883-1" source="77e6c97f196da883-18" target="77e6c97f196da883-21">
          <mxGeometry relative="1" as="geometry">
            <Array as="points">
              <mxPoint x="790" y="470" />
            </Array>
          </mxGeometry>
        </mxCell>
        <mxCell id="eOD7ezb7lZvlz8eYBK3R-13" style="edgeStyle=orthogonalEdgeStyle;rounded=0;orthogonalLoop=1;jettySize=auto;html=1;" edge="1" parent="77e6c97f196da883-1" source="eOD7ezb7lZvlz8eYBK3R-11" target="77e6c97f196da883-21">
          <mxGeometry relative="1" as="geometry" />
        </mxCell>
        <mxCell id="eOD7ezb7lZvlz8eYBK3R-18" value="" style="shape=flexArrow;endArrow=classic;html=1;fillColor=#e1d5e7;strokeColor=#9673a6;entryX=0.076;entryY=1.06;entryDx=0;entryDy=0;entryPerimeter=0;" edge="1" parent="77e6c97f196da883-1" target="eOD7ezb7lZvlz8eYBK3R-4">
          <mxGeometry width="50" height="50" relative="1" as="geometry">
            <mxPoint x="220" y="300" as="sourcePoint" />
            <mxPoint x="270" y="260" as="targetPoint" />
          </mxGeometry>
        </mxCell>
        <mxCell id="eOD7ezb7lZvlz8eYBK3R-19" value="" style="shape=flexArrow;endArrow=classic;html=1;fillColor=#e1d5e7;strokeColor=#9673a6;" edge="1" parent="1">
          <mxGeometry width="50" height="50" relative="1" as="geometry">
            <mxPoint x="290" y="500" as="sourcePoint" />
            <mxPoint x="460" y="600" as="targetPoint" />
          </mxGeometry>
        </mxCell>
      </root>
    </mxGraphModel>
  </diagram>
</mxfile>
